<svg xmlns="http://www.w3.org/2000/svg" width="21.747" height="30" viewBox="0 0 21.747 30">
  <g id="noun-address-2340042" transform="translate(-16.4 -2.5)">
    <g id="그룹_27" data-name="그룹 27" transform="translate(16.4 2.5)">
      <path id="패스_43" data-name="패스 43" d="M31.869,23.153c2.492-3.947,4.984-8.589,4.984-11.305a9.582,9.582,0,0,0-19.158,0c0,2.716,2.524,7.358,4.984,11.305-3.527.663-6.278,2.116-6.278,4.421,0,3.221,5.469,4.926,10.874,4.926s10.874-1.705,10.874-4.926C38.147,25.268,35.4,23.816,31.869,23.153Zm-4.6-18.537a7.356,7.356,0,0,1,7.443,7.263c0,2.305-2.751,7.642-7.508,14.242-4.628-6.632-7.379-11.968-7.379-14.274A7.35,7.35,0,0,1,27.274,4.616Zm0,25.768c-5.243,0-8.705-1.705-8.705-2.811,0-.853,2.039-2.021,5.307-2.558.55.821,1.068,1.611,1.521,2.274a2.27,2.27,0,0,0,3.689,0c.453-.663,1-1.453,1.521-2.274,3.269.505,5.307,1.705,5.307,2.558C35.979,28.679,32.516,30.384,27.274,30.384Z" transform="translate(-16.4 -2.5)" fill="#1a1a1a"/>
      <path id="패스_44" data-name="패스 44" d="M44.16,21.88a4.38,4.38,0,1,0-4.38,4.38A4.385,4.385,0,0,0,44.16,21.88Zm-6.75,0a2.37,2.37,0,1,1,2.37,2.37A2.375,2.375,0,0,1,37.41,21.88Z" transform="translate(-28.906 -12.658)" fill="#1a1a1a"/>
    </g>
  </g>
</svg>
