<svg xmlns="http://www.w3.org/2000/svg" width="22.726" height="30" viewBox="0 0 22.726 30">
  <g id="noun-phone-6073147" transform="translate(-6.039 -2.856)">
    <g id="Layer_2" data-name="Layer 2" transform="translate(6.039 2.856)">
      <path id="패스_47" data-name="패스 47" d="M28.267,25.932l-1.779-2.923a3.423,3.423,0,0,0-4.7-1.141l-1.468.894a1.124,1.124,0,0,1-1.369-.141,19.94,19.94,0,0,1-5.065-8.328,1.133,1.133,0,0,1,.509-1.278l1.468-.893A3.423,3.423,0,0,0,17,7.419L15.222,4.5a3.423,3.423,0,0,0-4.7-1.141L7.683,5.074A3.387,3.387,0,0,0,6.039,7.982a27.639,27.639,0,0,0,4.01,14.347A27.943,27.943,0,0,0,20.9,32.454a3.509,3.509,0,0,0,1.625.4,3.388,3.388,0,0,0,1.771-.5l2.834-1.725a3.423,3.423,0,0,0,1.141-4.7Z" transform="translate(-6.039 -2.856)" fill="#1a1a1a"/>
    </g>
  </g>
</svg>
