<svg xmlns="http://www.w3.org/2000/svg" width="72.349" height="72.381" viewBox="0 0 72.349 72.381">
  <path id="패스_21" data-name="패스 21" d="M27.994,65.137A26.681,26.681,0,0,1,16.035,62.6a24.838,24.838,0,0,1-8.542-6.816,29.415,29.415,0,0,1-5.125-9.908A40.4,40.4,0,0,1,.659,34.073a37.475,37.475,0,0,1,1.529-9.643q1.529-5.6,3.166-9.932A46.136,46.136,0,0,1,9.467,6.228,32.935,32.935,0,0,1,15.255-.707,26.739,26.739,0,0,1,22.68-5.474a22.881,22.881,0,0,1,9.135-1.77,21.577,21.577,0,0,1,7.62,1.316,18.655,18.655,0,0,1,6.118,3.691A16.7,16.7,0,0,1,49.619,3.5a18.655,18.655,0,0,1,1.465,7.528,21.37,21.37,0,0,1-2.97,9.947,39.864,39.864,0,0,1-6.931,9.446,43.659,43.659,0,0,1-9.424,7.013,51.078,51.078,0,0,1-11.845,4.795,22.867,22.867,0,0,0,2.167,3.221,9.778,9.778,0,0,0,2.167,2,7.329,7.329,0,0,0,2.314,1,11.316,11.316,0,0,0,2.608.286,27.826,27.826,0,0,0,9.258-1.718,61.07,61.07,0,0,0,9.478-4.294,80.433,80.433,0,0,0,8.709-5.618,74.428,74.428,0,0,0,6.953-5.761l9.441,9.59A97.5,97.5,0,0,1,59.322,53.078q-3.147,2.262-6.77,4.448a60.574,60.574,0,0,1-7.611,3.881,51.622,51.622,0,0,1-8.27,2.713A37.393,37.393,0,0,1,27.994,65.137ZM18.224,30.28a14.879,14.879,0,0,0,5.767-1.324,26.067,26.067,0,0,0,5.8-3.4,27.708,27.708,0,0,0,5.253-5.582q2.571-3.507,2.571-5.8a10.389,10.389,0,0,0-1.212-5.3,3.485,3.485,0,0,0-2.975-2.076,11.268,11.268,0,0,0-9.146,4.115,15.283,15.283,0,0,0-2.424,4.15q-.918,2.326-2.13,5.761a22.25,22.25,0,0,0-1.359,5.653Q18.224,28.706,18.224,30.28Z" transform="translate(-0.659 7.244)" fill="#e04141"/>
</svg>
