<svg xmlns="http://www.w3.org/2000/svg" width="35" height="30" viewBox="0 0 35 30">
  <g id="noun-heart-2389636" transform="translate(-2 -3)">
    <path id="패스_2" data-name="패스 2" d="M26.5,3a10.638,10.638,0,0,0-7,2.567A10.638,10.638,0,0,0,12.5,3,10.26,10.26,0,0,0,2,13C2,21.919,16.84,31.636,18.52,32.72a1.823,1.823,0,0,0,1.943,0C22.16,31.636,37,21.919,37,13A10.26,10.26,0,0,0,26.5,3Zm-7,26.3c-4.655-3.167-14-10.668-14-16.3a6.679,6.679,0,0,1,4.793-6.335A7.173,7.173,0,0,1,18.1,9.051a1.8,1.8,0,0,0,2.8,0,7.173,7.173,0,0,1,7.807-2.385A6.679,6.679,0,0,1,33.5,13C33.5,18.635,24.155,26.136,19.5,29.3Z" transform="translate(0 0)" fill="#fff"/>
  </g>
</svg>
