<svg xmlns="http://www.w3.org/2000/svg" width="24" height="24" viewBox="0 0 24 24">
  <g id="noun-instagram-6000262" transform="translate(-4 -4)">
    <path id="패스_4" data-name="패스 4" d="M23,4H9A5,5,0,0,0,4,9V23a5,5,0,0,0,5,5H23a5,5,0,0,0,5-5V9A5,5,0,0,0,23,4Zm3,19a3.009,3.009,0,0,1-3,3H9a3.009,3.009,0,0,1-3-3V9A3.009,3.009,0,0,1,9,6H23a3.009,3.009,0,0,1,3,3Z" fill="#fff"/>
    <path id="패스_5" data-name="패스 5" d="M16,9a7,7,0,1,0,7,7A7.008,7.008,0,0,0,16,9Zm0,12a5,5,0,1,1,5-5A5,5,0,0,1,16,21Z" fill="#fff"/>
    <circle id="타원_1" data-name="타원 1" cx="1" cy="1" r="1" transform="translate(22 8)" fill="#fff"/>
  </g>
</svg>
