<svg xmlns="http://www.w3.org/2000/svg" width="150" height="55.34" viewBox="0 0 150 55.34">
  <path id="패스_14" data-name="패스 14" d="M10.889-29.192a7.412,7.412,0,0,1-3.322-.7A6.9,6.9,0,0,1,5.194-31.79,8.171,8.171,0,0,1,3.77-34.542a11.224,11.224,0,0,1-.475-3.28A10.41,10.41,0,0,1,3.721-40.5q.425-1.555.88-2.759a12.816,12.816,0,0,1,1.142-2.3A9.149,9.149,0,0,1,7.35-47.484a7.428,7.428,0,0,1,2.063-1.324,6.356,6.356,0,0,1,2.538-.492,5.994,5.994,0,0,1,2.117.365,5.182,5.182,0,0,1,1.7,1.025,4.641,4.641,0,0,1,1.13,1.594,5.182,5.182,0,0,1,.407,2.091,5.937,5.937,0,0,1-.825,2.763,11.074,11.074,0,0,1-1.925,2.624,12.128,12.128,0,0,1-2.618,1.948,14.189,14.189,0,0,1-3.29,1.332,6.352,6.352,0,0,0,.6.895,2.716,2.716,0,0,0,.6.557,2.036,2.036,0,0,0,.643.278,3.144,3.144,0,0,0,.724.08,7.73,7.73,0,0,0,2.572-.477,16.965,16.965,0,0,0,2.633-1.193,22.344,22.344,0,0,0,2.419-1.561,20.675,20.675,0,0,0,1.931-1.6l2.623,2.664a27.084,27.084,0,0,1-3.8,3.371q-.874.628-1.881,1.236A16.827,16.827,0,0,1,15.6-30.229a14.341,14.341,0,0,1-2.3.754A10.387,10.387,0,0,1,10.889-29.192ZM8.175-38.876a4.133,4.133,0,0,0,1.6-.368,7.241,7.241,0,0,0,1.612-.944,7.7,7.7,0,0,0,1.459-1.551,2.989,2.989,0,0,0,.714-1.61,2.886,2.886,0,0,0-.337-1.471A.968.968,0,0,0,12.4-45.4a3.262,3.262,0,0,0-1.5.318,3.244,3.244,0,0,0-1.041.825A4.246,4.246,0,0,0,9.185-43.1q-.255.646-.592,1.6a6.181,6.181,0,0,0-.378,1.57Q8.175-39.313,8.175-38.876ZM19.4-33.442q0-1.342.163-3.1t.407-3.863q.244-2.1.549-3.792t.59-2.887a3.184,3.184,0,0,1,.864-1.565,2.37,2.37,0,0,1,1.738-.63,1.665,1.665,0,0,1,1.525.671,3.3,3.3,0,0,1,.427,1.789A7.44,7.44,0,0,1,25.6-46q-.061.518-.152,1.139t-.193,1.281q-.1.661-.193,1.5t-.152,1.261a4.812,4.812,0,0,0-.061.559h.407q.122-.224.386-.722a12.363,12.363,0,0,0,.61-1.433,12.321,12.321,0,0,1,.742-1.657q.4-.722.742-1.382t.63-1.169q.285-.508.427-.752a3.678,3.678,0,0,1,1.484-1.5,4.163,4.163,0,0,1,1.85-.407,1.878,1.878,0,0,1,1.616.854,4.048,4.048,0,0,1,.6,2.358,5.1,5.1,0,0,1-.091.752q-.091.529-.234,1.261T33.7-42.163Q33.528-41,33.385-40.09t-.234,1.809a16.275,16.275,0,0,0-.091,1.647,5.8,5.8,0,0,0,.315,2.074,1.057,1.057,0,0,0,.986.813,2,2,0,0,0,.691-.183,2.643,2.643,0,0,0,.854-.427,6.34,6.34,0,0,1,.935-.671,10.037,10.037,0,0,0,1.362-.813q1.626-1.037,3.883-2.541l-.02,4.554-1.017.773q-.122.1-1.911,1.057-2.582,1.382-3.233,1.667a19.255,19.255,0,0,1-1.972.813,6.961,6.961,0,0,1-2.135.325q-1.118,0-1.881-1.616a11.468,11.468,0,0,1-.762-4.727,23.113,23.113,0,0,1,.163-2.633q.163-1.413.407-3.039H29.4L24.074-30.636a2.641,2.641,0,0,1-.915,1.139,2.247,2.247,0,0,1-1.179.3,2.3,2.3,0,0,1-1.342-.356,2.315,2.315,0,0,1-.783-.956,4.564,4.564,0,0,1-.366-1.362A13.22,13.22,0,0,1,19.4-33.442Zm17.118,4.249a7.727,7.727,0,0,1,.144-1.137q.144-.815.384-1.972t.477-2.581l.486-2.918q.249-1.494.539-3.209t.6-3.012q.31-1.3.629-2.3a8.656,8.656,0,0,1,.629-1.552,2.311,2.311,0,0,1,.638-.735,2.532,2.532,0,0,1,.8-.388,4.4,4.4,0,0,1,.909-.153q.474-.031.938-.031a1.191,1.191,0,0,1,1.027.427,1.485,1.485,0,0,1,.315.895,4.21,4.21,0,0,1-.112.773q-.112.529-.274,1.139t-.325,1.159q-.142.509-.244.814l-1.139,3.721q1.139-.183,2.2-.254t2.318-.264a22.93,22.93,0,0,0,2.846-.651,30.233,30.233,0,0,0,3.781-1.433v3.9a13.634,13.634,0,0,1-2.694,1.129,21.177,21.177,0,0,1-2.45.579,16.09,16.09,0,0,1-2.5.244,28.393,28.393,0,0,1,.888,2.745l.585,2.731a14.186,14.186,0,0,1,.316,2.98q0,.264-.051,1.23t-.244,2.267a21.468,21.468,0,0,1-.61,2.755,11.191,11.191,0,0,1-1.139,2.663,6.679,6.679,0,0,1-1.809,2,4.382,4.382,0,0,1-2.653.793,3.645,3.645,0,0,1-2.419-.834,5.856,5.856,0,0,1-1.616-2.419,15.957,15.957,0,0,1-.895-3.883A44.449,44.449,0,0,1,36.516-29.192Zm5.8-9.09q-.412,3.166-.829,6.372a51.3,51.3,0,0,0-.417,6.622,10.127,10.127,0,0,0,.142,1.86,5.213,5.213,0,0,0,.356,1.2,2.065,2.065,0,0,0,.427.651.606.606,0,0,0,.376.193,1.194,1.194,0,0,0,1.067-.733,6.048,6.048,0,0,0,.59-1.811,17.209,17.209,0,0,0,.244-2.331q.051-1.252.051-2.29,0-.591-.069-1.333a14.34,14.34,0,0,0-.228-1.53L43.7-33.008l-.325-1.6Q42.9-36.4,42.317-38.282ZM41.03-54.858a3.345,3.345,0,0,1,.2-1.067,3.335,3.335,0,0,1,.661-1.119,3.665,3.665,0,0,1,1.22-.882,4.453,4.453,0,0,1,1.9-.359,5.3,5.3,0,0,1,1.342.164,3.249,3.249,0,0,1,1.1.5,2.387,2.387,0,0,1,.742.893,2.929,2.929,0,0,1,.274,1.313,4.173,4.173,0,0,1-.224,1.355,3.157,3.157,0,0,1-.712,1.17,3.661,3.661,0,0,1-1.23.831,4.5,4.5,0,0,1-1.779.318,3.609,3.609,0,0,1-2.643-.852A3.06,3.06,0,0,1,41.03-54.858Zm23.706,9.991a10.885,10.885,0,0,1,.884,2.491,13.535,13.535,0,0,1,.295,2.958A11.4,11.4,0,0,1,65.65-37a12.443,12.443,0,0,1-.762,2.358,11.449,11.449,0,0,1-1.22,2.135,8.687,8.687,0,0,1-1.647,1.728A7.8,7.8,0,0,1,60-29.619a6.393,6.393,0,0,1-2.338.427,5.722,5.722,0,0,1-3.06-.783,6.522,6.522,0,0,1-2.084-2.043,9.061,9.061,0,0,1-1.189-2.846,13.873,13.873,0,0,1-.376-3.212,14.206,14.206,0,0,1,.671-4.625,10.078,10.078,0,0,1,1.921-3.375,8.886,8.886,0,0,1,3.06-2.257,9.709,9.709,0,0,1,4.066-.823,10.727,10.727,0,0,1,3.619.6,13.748,13.748,0,0,1,3.161,1.606,13.486,13.486,0,0,1,2.745,2.531q1.271,1.525,2.369,2.907l-.386,2.867a11.819,11.819,0,0,0-1.484-1.586q-.935-.854-1.982-1.891a16.7,16.7,0,0,0-2.064-1.759Q65.63-44.6,64.9-45.091ZM58.453-33.1a1.855,1.855,0,0,0,1.342-.7,6.632,6.632,0,0,0,1.139-1.769,11.554,11.554,0,0,0,.783-2.582,14.279,14.279,0,0,0,.295-2.694,9.973,9.973,0,0,0-.142-1.738,5.349,5.349,0,0,0-.427-1.393,2.564,2.564,0,0,0-.732-.935,1.71,1.71,0,0,0-1.078-.346,2.291,2.291,0,0,0-1.586.712,6.669,6.669,0,0,0-1.321,1.82,11.025,11.025,0,0,0-.895,2.45,12.892,12.892,0,0,0-.325,3.029,7.59,7.59,0,0,0,.163,1.606,4.137,4.137,0,0,0,.508,1.311,2.628,2.628,0,0,0,.915.895A2.636,2.636,0,0,0,58.453-33.1Zm19.273,4.249.447-2.457a10.71,10.71,0,0,1-2.287,1.559,5.154,5.154,0,0,1-2.308.594,4.781,4.781,0,0,1-1.9-.4,4.95,4.95,0,0,1-1.637-1.139A5.565,5.565,0,0,1,68.9-32.5a6.44,6.44,0,0,1-.427-2.409,19.939,19.939,0,0,1,.244-3.242q.244-1.474.6-3.639a17.653,17.653,0,0,1,.845-3.416q.488-1.25,1.118-2.531a3.21,3.21,0,0,1,1.341-1.393,3.547,3.547,0,0,1,1.707-.478,2.071,2.071,0,0,1,1.219.356,1.26,1.26,0,0,1,.508,1.109,2.647,2.647,0,0,1-.05.488,3.185,3.185,0,0,1-.17.569,13.172,13.172,0,0,0-.606,2.225l-.658,3.437-.653,3.407a12.057,12.057,0,0,0-.242,2.245,6.828,6.828,0,0,0,.071,1,2.981,2.981,0,0,0,.254.863,1.694,1.694,0,0,0,.488.616,1.224,1.224,0,0,0,.773.236,1.829,1.829,0,0,0,1.362-.655,6.386,6.386,0,0,0,1.057-1.577,11.332,11.332,0,0,0,.722-1.9,11.659,11.659,0,0,0,.356-1.638l1.629-7.6a2.965,2.965,0,0,1,.57-1.22,4.177,4.177,0,0,1,.957-.905,4.238,4.238,0,0,1,1.14-.559,3.787,3.787,0,0,1,1.12-.183,1.92,1.92,0,0,1,1.059.275.954.954,0,0,1,.428.865,1.8,1.8,0,0,1-.061.428l-.254,1.453L84.988-44.2q-.2,1.163-.568,3.261t-.592,3.375q-.515,3.018-1.05,6.485a14.714,14.714,0,0,0,1.332-.853A13.756,13.756,0,0,0,85.7-33.3q.874-.853,1.952-2.143t2.419-3.22l.976,4.525a8.208,8.208,0,0,1-.935,1.272q-.61.686-1.3,1.333-1.017.929-1.464,1.252-.142.1-1.484,1.167-.407.346-2.692,1.87a2.007,2.007,0,0,0-.762,1.331q-.206.965-.474,3.587-.117.748-.146,1.152-.124.971-.235,1.85a17.18,17.18,0,0,1-.4,2.008,15.542,15.542,0,0,1-.67,2.075,10.449,10.449,0,0,1-1.015,1.881,8.036,8.036,0,0,1-1.39,1.6,6.011,6.011,0,0,1-1.836,1.068,6.6,6.6,0,0,1-2.354.407,7.48,7.48,0,0,1-1.917-.233,5.346,5.346,0,0,1-1.613-.721,3.743,3.743,0,0,1-1.2-1.33,4.738,4.738,0,0,1-.548-1.98A8.057,8.057,0,0,1,69.8-19.1q.752-1.341,1.057-1.858t.956-1.493a15.006,15.006,0,0,1,1.362-1.726q1.423-1.6,2.348-2.579T77.726-28.847Zm.072,4.9a11.139,11.139,0,0,0-2.811,3.253,23.359,23.359,0,0,0-2.2,4.553q-.672,1.951.67,1.951a2.9,2.9,0,0,0,.874-.122,1.8,1.8,0,0,0,.712-.437,3.961,3.961,0,0,0,.569-.691,6.4,6.4,0,0,0,.518-1.057q.274-.681.488-1.342t.539-1.759a7.524,7.524,0,0,0,.272-1.313q.089-.724.212-1.739Zm28.594-9.8q-1.954,1.139-3.481,1.992t-2.718,1.423a15.721,15.721,0,0,1-2.117.854,5.772,5.772,0,0,1-1.679.285,4.222,4.222,0,0,1-2.71-.935,7.051,7.051,0,0,1-1.961-2.694,16.88,16.88,0,0,1-1.183-4.259,36.4,36.4,0,0,1-.394-5.632q0-1.22.1-2.6t.282-2.745q-.614-.091-.952-.17t-.716-.158q-.379-.079-.962-.17t-1.688-.226a1.683,1.683,0,0,1-.757-.26,1.182,1.182,0,0,1-.389-.453,1.521,1.521,0,0,1-.143-.543q-.02-.283-.02-.487,0-.321.4-.489a4.068,4.068,0,0,1,1.022-.253,11.392,11.392,0,0,1,1.369-.095q.746-.01,1.431.01t1.226.031a4.137,4.137,0,0,0,.746-.03,45.766,45.766,0,0,1,1.39-5.3,30.114,30.114,0,0,1,1.887-4.561,12.58,12.58,0,0,1,2.283-3.2,3.709,3.709,0,0,1,2.6-1.206,2.793,2.793,0,0,1,1.6.487,4.277,4.277,0,0,1,1.231,1.3,6.606,6.606,0,0,1,.783,1.9,9.209,9.209,0,0,1,.275,2.265,8.107,8.107,0,0,1-.285,2.058,15.322,15.322,0,0,1-.773,2.208,23.094,23.094,0,0,1-1.149,2.277q-.661,1.153-1.393,2.287a1.528,1.528,0,0,1,.611-.026q.427.041.986.057l1.21.032q.651.016,1.261.037l1.139.041q.529.02.874.041a.658.658,0,0,1,.59.453,2.789,2.789,0,0,1,.183,1.086,1.839,1.839,0,0,1-.407,1.237,1.172,1.172,0,0,1-.9.477H97.274q-.592.813-1.195,1.6T94.967-44.4q-.081,1.261-.142,2.48-.02.529-.041,1.088t-.041,1.108q-.02.549-.03,1.057t-.01.935a7.171,7.171,0,0,0,.2,1.85,3.3,3.3,0,0,0,.592,1.23,2.223,2.223,0,0,0,.949.691,3.507,3.507,0,0,0,1.255.213,3.674,3.674,0,0,0,1.068-.2,11.815,11.815,0,0,0,1.4-.559q.763-.356,1.608-.844t1.669-1.067q.824-.579,1.577-1.22a14.827,14.827,0,0,0,1.364-1.311ZM99.887-59.492a4.486,4.486,0,0,0-.031-.5,1.862,1.862,0,0,0-.133-.516.971.971,0,0,0-.316-.4.981.981,0,0,0-.6-.162q-.531,0-1.072.928a13.662,13.662,0,0,0-1.041,2.372q-.5,1.443-.939,3.179t-.806,3.371q.306.03.612.053t.633.053q.612-1.024,1.276-2.22t1.194-2.35q.531-1.155.878-2.159A5.3,5.3,0,0,0,99.887-59.492Zm4.94,26.05q0-.895.1-2.084t.274-2.511q.173-1.321.407-2.694t.6-2.928q.366-1.555.63-2.592a14.64,14.64,0,0,1,.529-1.708,3.988,3.988,0,0,1,.325-.712,1.41,1.41,0,0,1,.376-.417,1.234,1.234,0,0,1,.529-.2,5.038,5.038,0,0,1,.783-.051,5.13,5.13,0,0,1,.823.051.653.653,0,0,1,.437.244,1.091,1.091,0,0,1,.173.559q.03.366.03,1,0,.752-.1,2.135a21.83,21.83,0,0,0-.061,2.419h.224q.407-.813,1.017-2.135a11.6,11.6,0,0,1,1.281-2.2,6.969,6.969,0,0,1,1.525-1.474,3.345,3.345,0,0,1,1.972-.6,2.2,2.2,0,0,1,.752.132,1.95,1.95,0,0,1,.64.376,1.782,1.782,0,0,1,.437.6,1.91,1.91,0,0,1,.163.8,6.385,6.385,0,0,1-.1.966q-.1.62-.325,1.616t-.325,1.637a7.034,7.034,0,0,0-.1,1.067,4.43,4.43,0,0,0,.142,1.22,2.278,2.278,0,0,0,.376.783,1.325,1.325,0,0,0,.529.417,1.606,1.606,0,0,0,.62.122,4.9,4.9,0,0,0,1.891-.407,12.283,12.283,0,0,0,1.789-.915,17.018,17.018,0,0,0,1.87-1.342l-.3,4.757q-.529.346-1.2.773a15.163,15.163,0,0,1-1.433.8,10.731,10.731,0,0,1-1.586.63,5.656,5.656,0,0,1-1.677.254,4.382,4.382,0,0,1-2.46-.62,4.51,4.51,0,0,1-1.484-1.626,8.246,8.246,0,0,1-.813-2.257q-.264-1.25-.427-2.531h-.325l-3.639,10.145a13.1,13.1,0,0,1-.539,1.311,4.452,4.452,0,0,1-.518.844,1.531,1.531,0,0,1-.569.457,1.67,1.67,0,0,1-.671.132,2.3,2.3,0,0,1-1.342-.356,2.315,2.315,0,0,1-.783-.956,4.565,4.565,0,0,1-.366-1.362A13.22,13.22,0,0,1,104.827-33.442Zm29.886-.081a18.014,18.014,0,0,1-1.82,1.433,19.367,19.367,0,0,1-2.348,1.4,17.92,17.92,0,0,1-2.572,1.067,8.049,8.049,0,0,1-2.491.427,4.718,4.718,0,0,1-1.779-.295,2.968,2.968,0,0,1-1.169-.823,3.17,3.17,0,0,1-.64-1.291,6.826,6.826,0,0,1-.193-1.677,18.481,18.481,0,0,1,.285-2.989q.586-3.532.754-3.969.277-.868,1.108-3.847.772-2.429.953-3.161a1.66,1.66,0,0,1,.559-.925,3.707,3.707,0,0,1,.949-.606,5.146,5.146,0,0,1,1.1-.349,5.327,5.327,0,0,1,1.029-.113,1.566,1.566,0,0,1,1.139.315,1.174,1.174,0,0,1,.3.844,5.514,5.514,0,0,1-.209,1.264l-.476,1.861q-.267,1.045-.791,2.687a20.543,20.543,0,0,0-.716,2.8q-.192,1.159-.484,2.3a8.456,8.456,0,0,0-.292,2.078,4.22,4.22,0,0,0,.2,1.453.8.8,0,0,0,.834.539,3.354,3.354,0,0,0,1.626-.508,14.5,14.5,0,0,0,1.809-1.23q.915-.722,1.789-1.494t1.545-1.321Zm-9.088-21.335a3.344,3.344,0,0,1,.2-1.067,3.335,3.335,0,0,1,.661-1.119,3.665,3.665,0,0,1,1.22-.882,4.453,4.453,0,0,1,1.9-.359,5.3,5.3,0,0,1,1.342.164,3.249,3.249,0,0,1,1.1.5,2.388,2.388,0,0,1,.742.893,2.929,2.929,0,0,1,.274,1.313,4.173,4.173,0,0,1-.224,1.355,3.157,3.157,0,0,1-.712,1.17,3.661,3.661,0,0,1-1.23.831,4.5,4.5,0,0,1-1.779.318,3.609,3.609,0,0,1-2.643-.852A3.06,3.06,0,0,1,125.626-54.858ZM141.8-33.1a16.42,16.42,0,0,0,3.731-.394,14.456,14.456,0,0,0,3.058-1.063,12.978,12.978,0,0,0,2.48-1.565,16.047,16.047,0,0,0,2-1.919l.224,4.507a10.987,10.987,0,0,1-1.576,1.637A11.662,11.662,0,0,1,149.7-30.5a11.877,11.877,0,0,1-2.308.954,8.4,8.4,0,0,1-2.389.358,1.816,1.816,0,0,1-.354-.044l-.739-.153q-.527-.11-1.509-.3t-2.663-.449v.368a32.812,32.812,0,0,1-.639,6.747,21.635,21.635,0,0,1-1.707,5.175,10.189,10.189,0,0,1-2.45,3.307,4.415,4.415,0,0,1-2.869,1.164,3.153,3.153,0,0,1-1.931-.573,4,4,0,0,1-1.23-1.545,8.134,8.134,0,0,1-.651-2.272,18.733,18.733,0,0,1-.193-2.753,7.962,7.962,0,0,1,.264-1.9,19.079,19.079,0,0,1,.712-2.224q.447-1.163,1.006-2.368t1.149-2.337q1.382-2.636,3.151-5.436.226-1.535.463-3.149t.6-3.168a18.3,18.3,0,0,1,1.126-3.259,11.605,11.605,0,0,1,1.626-2.735,6.459,6.459,0,0,1,2.075-1.635,6.461,6.461,0,0,1,2.919-.605,7.693,7.693,0,0,1,2.315.338,4.872,4.872,0,0,1,1.889,1.095,5.208,5.208,0,0,1,1.279,1.955,8.115,8.115,0,0,1,.467,2.937,8.233,8.233,0,0,1-.406,2.893,9.512,9.512,0,0,1-1.573,2.7,13.8,13.8,0,0,1-2.293,2.136,15.488,15.488,0,0,1-3.156,1.781Zm-2.577-1.988a10.777,10.777,0,0,0,2.116-1.319,10.947,10.947,0,0,0,1.505-1.555q.265-.039,1.261-1.811a13.982,13.982,0,0,0,.855-2.322,5.813,5.813,0,0,0,.132-1.014,3.221,3.221,0,0,0-.121-1.092,1.988,1.988,0,0,0-.527-.876,1.435,1.435,0,0,0-1.043-.364,2.23,2.23,0,0,0-1.322.4,3.589,3.589,0,0,0-.987,1.092,6.833,6.833,0,0,0-.692,1.634q-.275.945-.651,2.332a13,13,0,0,0-.451,2.559Q139.224-36.245,139.224-35.084Zm-7.275,14.808a3.123,3.123,0,0,0,.071.526,3.362,3.362,0,0,0,.234.728,2.337,2.337,0,0,0,.427.647.855.855,0,0,0,.651.283.656.656,0,0,0,.569-.374,3.467,3.467,0,0,0,.366-1,9.86,9.86,0,0,0,.2-1.415q.061-.789.1-1.618t.046-1.618q.011-.789.054-1.415.064-1.092.1-1.85t.054-1.264q.02-.568.041-.985a13.35,13.35,0,0,0-.752,1.552q-.366.883-.691,1.837t-.59,1.908q-.264.954-.457,1.776t-.3,1.42A5.363,5.363,0,0,0,131.948-20.276Z" transform="translate(-3.296 65.625)" fill="#fff"/>
</svg>
