<svg xmlns="http://www.w3.org/2000/svg" width="24" height="24" viewBox="0 0 24 24">
  <path id="iconmonstr-logo-1" d="M16.5,2.75A1.75,1.75,0,1,0,18.25,4.5,1.752,1.752,0,0,0,16.5,2.75ZM16.5,0A4.5,4.5,0,1,1,12,4.5,4.505,4.505,0,0,1,16.5,0ZM11,17.01s2.539,3.087,4.022,4.944C16.185,23.408,17.047,24,18.484,24A2.426,2.426,0,0,0,21,21.691a2.7,2.7,0,0,0-.594-1.646C18.886,18.072,18,17.01,18,17.01ZM7.864,17H5a1,1,0,0,1,0-2H18.279a2.178,2.178,0,0,1,1.963.958c.96,1.211,2.5,3.163,2.562,3.251A4.948,4.948,0,0,0,24,16a5,5,0,0,0-5-5H5A5,5,0,0,0,5,21h6.141C10,19.595,7.864,17,7.864,17Zm.05-12.5L10,6.586,8.586,8,6.5,5.914,4.414,8,3,6.586,5.086,4.5,3,2.414,4.414,1,6.5,3.086,8.586,1,10,2.414,7.914,4.5Z" fill="#fff"/>
</svg>
