<svg xmlns="http://www.w3.org/2000/svg" width="95" height="84.4" viewBox="0 0 95 84.4">
  <g id="noun-no-image-4311538" transform="translate(-2.5 -7.8)">
    <g id="그룹_26" data-name="그룹 26">
      <path id="패스_41" data-name="패스 41" d="M52.5,27.4V26.2H4.7a2.22,2.22,0,0,0-2.2,2.2V90a2.22,2.22,0,0,0,2.2,2.2H77A2.22,2.22,0,0,0,79.2,90V52.8H78A25.457,25.457,0,0,1,52.5,27.4ZM26.7,38.3a6.3,6.3,0,1,1-6.3,6.3A6.4,6.4,0,0,1,26.7,38.3ZM66.2,80.7H15.4A1.627,1.627,0,0,1,14,78.2L26.4,58.4a1.681,1.681,0,0,1,2.8,0l6.3,10.1L47.1,50a1.681,1.681,0,0,1,2.8,0L67.6,78.2A1.627,1.627,0,0,1,66.2,80.7Z" fill="#585858"/>
      <path id="패스_42" data-name="패스 42" d="M77.9,7.8A19.6,19.6,0,1,0,97.5,27.4,19.632,19.632,0,0,0,77.9,7.8ZM86.5,32a2.959,2.959,0,0,1,0,4.1,2.782,2.782,0,0,1-2.1.8,3.439,3.439,0,0,1-2.1-.8l-4.5-4.5-4.5,4.5a2.782,2.782,0,0,1-2.1.8,3.227,3.227,0,0,1-2.1-.8,2.959,2.959,0,0,1,0-4.1l4.5-4.5L69.1,23a2.9,2.9,0,1,1,4.1-4.1l4.5,4.5,4.5-4.5A2.9,2.9,0,1,1,86.3,23L82,27.4Z" fill="#585858"/>
    </g>
  </g>
</svg>
