<svg xmlns="http://www.w3.org/2000/svg" width="30" height="30" viewBox="0 0 30 30">
  <g id="noun-homepage-1998096" transform="translate(-2.5 -2.5)">
    <g id="그룹_28" data-name="그룹 28" transform="translate(2.5 2.5)">
      <path id="패스_45" data-name="패스 45" d="M33.737,22.3a.882.882,0,0,0-1.323,0l-6.342,7a1.05,1.05,0,0,0,.661,1.757h.781v6.93a.772.772,0,0,0,.721.8h2.885a.366.366,0,0,0,.361-.4V34.666a.366.366,0,0,1,.361-.4h2.465a.366.366,0,0,1,.361.4V38.38a.366.366,0,0,0,.361.4h2.885a.772.772,0,0,0,.721-.8v-6.93h.781a1.055,1.055,0,0,0,.661-1.757Z" transform="translate(-18.076 -16.193)" fill="#1a1a1a"/>
      <path id="패스_46" data-name="패스 46" d="M17.5,2.5a15,15,0,1,0,15,15A15.014,15.014,0,0,0,17.5,2.5Zm0,27.726A12.726,12.726,0,1,1,30.226,17.5,12.749,12.749,0,0,1,17.5,30.226Z" transform="translate(-2.5 -2.5)" fill="#1a1a1a"/>
    </g>
  </g>
</svg>
