<svg xmlns="http://www.w3.org/2000/svg" width="30" height="30" viewBox="0 0 30 30">
  <g id="user_black" transform="translate(-3 -2)">
    <path id="패스_1" data-name="패스 1" d="M17.981,17c4.6,0,8.323-3.358,8.323-7.5S22.577,2,17.981,2,9.658,5.358,9.658,9.5,13.387,17,17.981,17Zm0-12a4.766,4.766,0,0,1,4.994,4.5A4.766,4.766,0,0,1,17.981,14a4.766,4.766,0,0,1-4.994-4.5A4.766,4.766,0,0,1,17.981,5ZM32.962,30.18c-.2-6.5-6.1-11.676-13.316-11.681H16.316C8.965,18.507,3.008,23.876,3,30.5A1.589,1.589,0,0,0,4.665,32H31.331a1.74,1.74,0,0,0,1.3-.557A1.39,1.39,0,0,0,32.962,30.18ZM6.467,29c.819-4.328,4.978-7.495,9.849-7.5h3.329c4.872.005,9.03,3.172,9.849,7.5Z" fill="#fff"/>
  </g>
</svg>
