<svg xmlns="http://www.w3.org/2000/svg" width="50" height="47.727" viewBox="0 0 50 47.727">
  <g id="noun-asian-710102" transform="translate(-51.5 -51.5)">
    <g id="그룹_13" data-name="그룹 13" transform="translate(51.5 51.5)">
      <g id="그룹_12" data-name="그룹 12" transform="translate(0 0)">
        <path id="패스_16" data-name="패스 16" d="M54,148.572h6.817v18.289H92.627V148.572h6.817V144H54Zm34.083,13.717H65.361V148.572H88.083Z" transform="translate(-51.722 -119.134)" fill="#585858"/>
        <path id="패스_17" data-name="패스 17" d="M63.064,74.575H90.355A9.94,9.94,0,0,0,97,71.908a8.741,8.741,0,0,0,2.449-6.477H94.9a3.961,3.961,0,0,1-2.045,3.912,6.211,6.211,0,0,1-2.5.66c-7.12,0-11.361-13.59-11.361-16H74.45c0,2.515-4.09,16-11.361,16a6.124,6.124,0,0,1-2.5-.66,3.961,3.961,0,0,1-2.045-3.912H54a8.841,8.841,0,0,0,2.449,6.477A9.954,9.954,0,0,0,63.064,74.575Zm12.3-9.17a28.581,28.581,0,0,0,1.389-2.947c.429.991.909,1.981,1.414,2.947A25.164,25.164,0,0,0,81.317,70H72.178A24.025,24.025,0,0,0,75.359,65.405Z" transform="translate(-51.722 -51.722)" fill="#585858"/>
        <circle id="타원_16" data-name="타원 16" cx="2.278" cy="2.278" r="2.278" transform="translate(22.722)" fill="#585858"/>
        <circle id="타원_17" data-name="타원 17" cx="2" cy="2" r="2" transform="translate(2.5 11.471)" fill="#585858"/>
        <circle id="타원_18" data-name="타원 18" cx="2" cy="2" r="2" transform="translate(43.385 11.471)" fill="#585858"/>
        <circle id="타원_19" data-name="타원 19" cx="2.278" cy="2.278" r="2.278" transform="translate(0 24.921)" fill="#585858"/>
        <circle id="타원_20" data-name="타원 20" cx="2.278" cy="2.278" r="2.278" transform="translate(45.444 24.921)" fill="#585858"/>
      </g>
    </g>
  </g>
</svg>
