<svg xmlns="http://www.w3.org/2000/svg" width="75" height="75" viewBox="0 0 75 75">
  <g id="그룹_20" data-name="그룹 20" transform="translate(387 1573)">
    <circle id="타원_28" data-name="타원 28" cx="37.5" cy="37.5" r="37.5" transform="translate(-387 -1573)" fill="#e04141"/>
    <g id="noun-camp-1012393" transform="translate(-376.5 -1564.623)">
      <path id="패스_15" data-name="패스 15" d="M48.875,51.987a3.125,3.125,0,1,0,0-6.249H47.563L30.6,16.054l5.365-9.374a3.131,3.131,0,0,0-5.427-3.125L27,9.758l-3.536-6.2a3.131,3.131,0,0,0-5.427,3.125L23.4,16.054,6.438,45.738H5.125a3.125,3.125,0,1,0,0,6.249ZM20.833,45.738l4.724-8.27a1.662,1.662,0,0,1,2.885,0l4.724,8.27Z" fill="#fff" stroke="#e04141" stroke-width="1"/>
    </g>
  </g>
</svg>
