<svg xmlns="http://www.w3.org/2000/svg" width="50" height="50.001" viewBox="0 0 50 50.001">
  <g id="noun-art-1515815" transform="translate(-26 -26)">
    <path id="패스_4" data-name="패스 4" d="M28.083,61.417H40.7L32.635,72.708a2.084,2.084,0,0,0,3.4,2.417l9.76-13.708h3.125v12.5a2.083,2.083,0,0,0,4.167,0v-12.5h3.125L66,75.125a2.084,2.084,0,0,0,3.4-2.417L61.3,61.417H73.917a2.083,2.083,0,0,0,0-4.167H71.833v-25A6.25,6.25,0,0,0,65.583,26H36.417a6.25,6.25,0,0,0-6.25,6.25v25H28.083a2.083,2.083,0,1,0,0,4.167Zm8.333-31.25H65.583a2.083,2.083,0,0,1,2.083,2.083v16.5l-7.031-5.625a2.083,2.083,0,0,0-2.771.156l-4.781,4.771-8.948-8.938a2.083,2.083,0,0,0-2.906,0l-6.9,6.51V32.25A2.083,2.083,0,0,1,36.417,30.167ZM34.333,51.375l8.333-7.885,8.99,8.979a2.083,2.083,0,0,0,2.938,0l4.938-4.927,8.135,6.583V57.25H34.333Z" transform="translate(0 0)" fill="#585858"/>
    <circle id="타원_14" data-name="타원 14" cx="3" cy="3" r="3" transform="translate(51.143 34.381)" fill="#585858"/>
  </g>
</svg>
