<svg xmlns="http://www.w3.org/2000/svg" width="91.524" height="76.133" viewBox="0 0 91.524 76.133">
  <g id="noun-pet-1886450" transform="translate(1257.732 -838.436)">
    <g id="그룹_22" data-name="그룹 22" transform="translate(-1255.719 840.462)">
      <path id="패스_22" data-name="패스 22" d="M71.969,57.273a7.1,7.1,0,0,1-3.241-4.019A13.351,13.351,0,0,0,56.021,43.4a13.507,13.507,0,0,0-12.706,9.854,7.1,7.1,0,0,1-3.241,4.019C31,62.46,29.7,72.832,29.7,78.537c0,3.89,2.723,7,7.131,8.039,6.094,1.556,14.392-.908,18.022-7.52a1.413,1.413,0,0,1,1.167-.778,1.583,1.583,0,0,1,1.3.778c2.852,5.316,8.817,7.909,14.262,7.909a17.6,17.6,0,0,0,3.76-.389c4.408-1.167,7.131-4.149,7.131-8.039C82.341,72.7,81.045,62.46,71.969,57.273ZM74.3,82.816c-4.538,1.167-11.021-.648-13.614-5.575a5.411,5.411,0,0,0-4.668-2.852,5.165,5.165,0,0,0-4.668,2.852c-2.593,4.8-9.076,6.613-13.614,5.446-1.556-.389-4.149-1.426-4.149-4.279,0-4.927,1.037-13.614,8.428-17.893a11.393,11.393,0,0,0,5.057-6.224,9.589,9.589,0,0,1,8.946-7.131,9.589,9.589,0,0,1,8.946,7.131,10.481,10.481,0,0,0,5.057,6.224c7.391,4.149,8.428,12.966,8.428,17.893C78.451,81.26,75.858,82.427,74.3,82.816Z" transform="translate(-12.301 -14.956)" fill="#585858" stroke="#585858" stroke-width="4"/>
      <path id="패스_23" data-name="패스 23" d="M41.719,50.261a16.991,16.991,0,0,0-4.927-9.206C31.216,35.48,23.178,34.313,18.9,38.592c-2.2,2.2-2.982,5.316-2.464,8.817a16.991,16.991,0,0,0,4.927,9.206,16.334,16.334,0,0,0,11.151,5.057,9.51,9.51,0,0,0,6.742-2.593A10.576,10.576,0,0,0,41.719,50.261ZM36.4,56.225c-2.723,2.723-8.428,1.556-12.447-2.464a12.905,12.905,0,0,1-3.76-7,6.008,6.008,0,0,1,1.426-5.446,5.578,5.578,0,0,1,4.019-1.556,12.9,12.9,0,0,1,8.428,3.89,12.905,12.905,0,0,1,3.76,7A6.165,6.165,0,0,1,36.4,56.225Z" transform="translate(-16.281 -17.15)" fill="#585858" stroke="#585858" stroke-width="4"/>
      <path id="패스_24" data-name="패스 24" d="M86.953,38.6c-4.279-4.279-12.318-3.241-17.893,2.464a16.952,16.952,0,0,0-4.927,9.206A10.33,10.33,0,0,0,66.6,59.087a9.183,9.183,0,0,0,6.742,2.593,15.785,15.785,0,0,0,11.151-5.057,16.952,16.952,0,0,0,4.927-9.206A9.59,9.59,0,0,0,86.953,38.6Zm-1.3,8.168a12.905,12.905,0,0,1-3.76,7c-4.019,4.019-9.724,5.057-12.447,2.464-1.3-1.3-1.686-3.112-1.426-5.446a12.905,12.905,0,0,1,3.76-7A12.637,12.637,0,0,1,80.21,39.9a5.578,5.578,0,0,1,4.019,1.556C85.526,42.62,85.915,44.565,85.656,46.769Z" transform="translate(-2.131 -17.159)" fill="#585858" stroke="#585858" stroke-width="4"/>
      <path id="패스_25" data-name="패스 25" d="M39.149,48.55a10.635,10.635,0,0,0,4.8,1.3,10.8,10.8,0,0,0,2.852-.389c5.835-1.945,8.946-9.595,6.872-17.115a15.669,15.669,0,0,0-7-9.465,9.932,9.932,0,0,0-7.65-.778c-5.835,1.945-8.946,9.595-6.872,17.115A14.493,14.493,0,0,0,39.149,48.55Zm1.037-22.82a7.589,7.589,0,0,1,1.686-.259,6.731,6.731,0,0,1,2.982.778,11.111,11.111,0,0,1,5.057,7c1.426,5.446-.519,11.021-4.408,12.318h0a5.751,5.751,0,0,1-4.538-.519,11.111,11.111,0,0,1-5.057-7C34.351,32.6,36.3,27.027,40.186,25.731Z" transform="translate(-11.766 -21.403)" fill="#585858" stroke="#585858" stroke-width="4"/>
      <path id="패스_26" data-name="패스 26" d="M58.534,49.388a10.111,10.111,0,0,0,2.852.389,9.548,9.548,0,0,0,4.8-1.3,15.3,15.3,0,0,0,7-9.465c2.075-7.52-1.037-15.17-6.872-17.115a9.932,9.932,0,0,0-7.65.778,15.3,15.3,0,0,0-7,9.465C49.458,39.793,52.57,47.443,58.534,49.388ZM55.293,33.31c.908-3.112,2.723-5.835,5.057-7a6.731,6.731,0,0,1,2.982-.778,8.923,8.923,0,0,1,1.686.259c3.89,1.3,5.835,6.872,4.408,12.318-.908,3.112-2.723,5.835-5.057,7a5.751,5.751,0,0,1-4.538.519h0C55.811,44.461,53.866,38.756,55.293,33.31Z" transform="translate(-5.998 -21.462)" fill="#585858" stroke="#585858" stroke-width="4"/>
    </g>
  </g>
</svg>
