<svg xmlns="http://www.w3.org/2000/svg" width="75" height="75" viewBox="0 0 75 75">
  <g id="그룹_15" data-name="그룹 15" transform="translate(775 1577)">
    <circle id="타원_26" data-name="타원 26" cx="37.5" cy="37.5" r="37.5" transform="translate(-775 -1577)" fill="#e04141"/>
    <g id="noun-shopping-bag-6061492" transform="translate(-770.335 -1572.5)">
      <path id="패스_7" data-name="패스 7" d="M53.625,51.049l-2.86-23.958a6.489,6.489,0,0,0-6.576-5.549H42.209V17.375a9.375,9.375,0,1,0-18.75,0v4.167H21.48A6.489,6.489,0,0,0,14.9,27.091l-2.86,23.958a5.965,5.965,0,0,0,1.5,4.717A6.767,6.767,0,0,0,18.621,58H47.049a6.767,6.767,0,0,0,5.073-2.234,5.961,5.961,0,0,0,1.5-4.717Zm-26-33.674a5.208,5.208,0,1,1,10.417,0v4.167H27.625ZM25.542,35.6a3.642,3.642,0,0,1-2.083-6.632v2.986a2.083,2.083,0,0,0,4.167,0V28.972A3.642,3.642,0,0,1,25.542,35.6Zm14.583,0a3.642,3.642,0,0,1-2.083-6.632v2.986a2.083,2.083,0,0,0,4.167,0V28.972A3.642,3.642,0,0,1,40.125,35.6Z" transform="translate(0)" fill="#fff"/>
    </g>
  </g>
</svg>
