<svg xmlns="http://www.w3.org/2000/svg" width="50" height="35.293" viewBox="0 0 50 35.293">
  <g id="noun-bed-2164555" transform="translate(-4.18 -177.755)">
    <g id="그룹_10" data-name="그룹 10" transform="translate(4.18 177.756)">
      <g id="그룹_5" data-name="그룹 5" transform="translate(0 0)">
        <path id="패스_8" data-name="패스 8" d="M106.794,217.961v12.4a.7.7,0,0,1-.686.754H102.99a.789.789,0,0,1-.786-.754V221.89H63.537v8.475a.7.7,0,0,1-.686.754H59.733a.743.743,0,0,1-.733-.754V198.7a.7.7,0,0,1,.733-.7h3.118a.658.658,0,0,1,.686.7v18.548h42.571A.669.669,0,0,1,106.794,217.961Z" transform="translate(-57.903 -196.916)" fill="#585858"/>
        <g id="그룹_4" data-name="그룹 4">
          <path id="패스_9" data-name="패스 9" d="M86.383,198.8v10.9c0,.5-.011,1,0,1.494v.021c0,.063-.026.2.011-.069-.011.058-.079.19.032-.063-.069.153.016-.026.048-.053.121-.084.153-.106.084-.063s-.037.026.1-.037c-.174.063.174.011.032-.005-.063-.005-.132,0-.2,0h-2.4a2.546,2.546,0,0,0-.449,0c-.005,0-.021-.005-.026,0l.137.021c-.174-.048.021.021.048.037-.158-.084.011.021.032.042-.127-.121.005.026.021.053-.127-.2.042.169.005.026-.032-.111.026.079.011.106.016-.026,0-.106,0-.132V202.71a1.073,1.073,0,0,0-1.056-1.056h-37.1c-.5,0-1.008-.011-1.51,0h-.063a1.073,1.073,0,0,0-1.056,1.056v7.311c0,.38.005.76,0,1.14a.508.508,0,0,0,0,.09c.011.143.063-.253-.005-.037.1-.29-.09.053.1-.179l-.048.048a.427.427,0,0,1,.238-.143c-.164.058.021-.032.074-.005a.681.681,0,0,0-.179,0H40.654c-.09,0-.185-.005-.274,0a.177.177,0,0,0-.053,0c-.011.011-1.283-.317.132.021-.111-.032-.09-.021.053.037-.1-.058-.079-.042.048.042-.174-.143.106.19,0-.005.1.19.058.132.037.053.465,1.826.016.153.026.137s0-.021,0-.032a10.9,10.9,0,0,0,0-1.246v-30.1a1.027,1.027,0,0,0,0-.311v-.005c.042.058-.069.238-.005.074-.016.042-.037.084-.053.127.058-.1.042-.079-.048.053l-.111.079c.079-.042.074-.048-.011-.011-.021.011-.042.016-.063.026.111-.032.084-.032-.074-.005.005,0,.09-.005.111-.005.248-.005.491,0,.739,0h2.338a.348.348,0,0,1,.074.005.44.44,0,0,1-.28-.074c.153.084-.042-.042-.058-.058.074.079.058.058-.048-.069-.058-.158-.069-.179-.032-.074-.042-.285-.011-.069-.011.011.005.713,0,1.425,0,2.138v16.337a1.073,1.073,0,0,0,1.056,1.056H85.216c.5,0,1,.005,1.494,0h.026c.042,0,.143.026,0-.005-.032-.005-.274-.116-.174-.053s-.09-.079-.084-.074c.127.111-.032-.048-.048-.069.048.063.032.153-.032-.074-.011,0-.026-.243-.016-.053a1.056,1.056,0,0,0,2.111,0,1.8,1.8,0,0,0-1.884-1.768H45.943c-.575,0-1.151-.016-1.726,0h-.074l1.056,1.056V180.07c0-.179.005-.354,0-.533a1.77,1.77,0,0,0-.955-1.589,2.457,2.457,0,0,0-1.13-.19H40.886c-.185,0-.375-.005-.56,0a1.819,1.819,0,0,0-1.811,1.768c-.011.327,0,.655,0,.982v30.711a1.863,1.863,0,0,0,1.811,1.826c.185.005.375,0,.56,0h2.228a2.314,2.314,0,0,0,1.13-.2A1.873,1.873,0,0,0,45.2,211.2c.032-1.061,0-2.127,0-3.188v-5.3l-1.056,1.056h37.1c.5,0,1.008.016,1.51,0h.063l-1.056-1.056V210.9a2.225,2.225,0,0,0,.253,1.219,1.936,1.936,0,0,0,1.6.918c.132.005.264,0,.4,0h1.747a7.863,7.863,0,0,0,1.32-.042,1.832,1.832,0,0,0,1.415-1.848v-7.01c0-1.747.026-3.5,0-5.252v-.09a1.066,1.066,0,0,0-1.056-1.056A1.086,1.086,0,0,0,86.383,198.8Z" transform="translate(-38.511 -177.756)" fill="#585858"/>
        </g>
      </g>
      <g id="그룹_7" data-name="그룹 7" transform="translate(8.112 7.006)">
        <circle id="타원_15" data-name="타원 15" cx="4.454" cy="4.454" r="4.454" transform="translate(1.055 1.07)" fill="#585858"/>
        <g id="그룹_6" data-name="그룹 6">
          <path id="패스_10" data-name="패스 10" d="M201.694,316.843c0,.112-.005.225-.011.337a.641.641,0,0,1-.016.182s.048-.278.005-.07a5.174,5.174,0,0,1-.155.632c-.016.043-.032.091-.048.134s-.032.22-.021.07c.005-.128.011-.027-.016.032s-.048.107-.075.161a4.268,4.268,0,0,1-.327.541.731.731,0,0,1-.08.112c.075-.016.139-.166.016-.027-.07.08-.139.155-.209.236-.064.064-.134.134-.2.193a.868.868,0,0,1-.107.091.92.92,0,0,0-.08.07c-.064.048-.037.032.08-.059-.011.043-.193.134-.23.161-.086.059-.177.112-.268.166a2.826,2.826,0,0,1-.284.145.716.716,0,0,1-.128.059c.134-.059.166-.07.091-.043-.032.011-.064.027-.1.037a4.363,4.363,0,0,1-.589.166l-.177.032c-.161.032.054.011.07-.005-.032.043-.305.027-.369.027-.214.005-.423-.011-.632-.021-.161-.011.273.054.032.005-.048-.011-.1-.016-.145-.027-.118-.021-.236-.054-.348-.086-.091-.027-.182-.054-.273-.086.005,0-.134-.043-.134-.048.005.037.214.1.027.011a4.778,4.778,0,0,1-.584-.327c-.037-.027-.219-.118-.23-.161.005.032.166.139.054.037-.043-.037-.091-.075-.134-.112a6.449,6.449,0,0,1-.46-.477c-.1-.112.005.043.037.054a.637.637,0,0,1-.08-.112c-.054-.075-.107-.155-.155-.236s-.107-.182-.155-.273c-.027-.054-.054-.107-.08-.155s-.037-.209-.032-.064-.005-.021-.021-.07-.032-.091-.048-.134l-.08-.273c-.027-.107-.048-.214-.07-.316-.037-.2-.048-.005,0,.032-.021-.016-.016-.161-.016-.182a4.973,4.973,0,0,1-.005-.632,1.315,1.315,0,0,0,.011-.15c.016-.246-.037.187-.005.032.021-.118.043-.236.07-.353.016-.075.118-.562.182-.578-.016.005-.1.209-.027.059.027-.054.048-.107.075-.161a2.8,2.8,0,0,1,.171-.305c.054-.091.112-.177.171-.262a.678.678,0,0,1,.08-.112s-.171.2-.037.054.278-.311.434-.455c.043-.037.086-.075.134-.112.139-.123-.011-.059-.027.016.011-.043.187-.134.23-.161a4.28,4.28,0,0,1,.551-.31c.059-.027.209-.037.064-.032s-.021.011.037-.011c.1-.032.2-.07.305-.1s.187-.048.278-.07a1.366,1.366,0,0,1,.145-.027,1.334,1.334,0,0,1,.145-.021,1.239,1.239,0,0,0-.139.021,1.1,1.1,0,0,1,.332-.027q.169-.008.337,0c.1.005.2.011.294.021.214.016-.07-.011-.064-.011.021-.021.177.032.214.037a5.321,5.321,0,0,1,.691.2c.193.064-.054-.027-.059-.027.043-.005.15.07.193.091.107.054.209.107.31.166a3.475,3.475,0,0,1,.294.193c.027.016.177.166.059.043s.027.021.054.048a4.276,4.276,0,0,1,.493.493c.016.021.177.177.048.054s.016.027.043.059c.075.107.145.214.209.327s.112.2.166.311c.021.043.037.086.059.128.032.075.021.043-.037-.091.011.032.027.064.037.1a6.3,6.3,0,0,1,.193.691c.011.048.016.1.027.145.011.08.011.048-.011-.1a.8.8,0,0,1,.011.112c.011.08.016.219.021.353a1.071,1.071,0,0,0,2.141,0,5.6,5.6,0,0,0-3.673-5.2,5.518,5.518,0,0,0-6.06,1.633,5.521,5.521,0,1,0,9.733,3.571,1.071,1.071,0,0,0-2.141-.005Z" transform="translate(-192.802 -311.32)" fill="#585858"/>
        </g>
      </g>
      <g id="그룹_9" data-name="그룹 9" transform="translate(20.099 6.963)">
        <path id="패스_11" data-name="패스 11" d="M474.731,340.749v3.394a.679.679,0,0,0-.7-.723H447V331h18.02A9.76,9.76,0,0,1,474.731,340.749Z" transform="translate(-445.94 -329.933)" fill="#585858"/>
        <g id="그룹_8" data-name="그룹 8">
          <path id="패스_12" data-name="패스 12" d="M454.942,321.893v3.394h2.141a1.806,1.806,0,0,0-1.82-1.793c-.118-.005-.236,0-.353,0H431.772c-1.151,0-2.307-.043-3.453,0h-.048l1.071,1.071v-12.4l-1.071,1.071H446.28c.177,0,.348.005.525.016.1.005.2.011.294.021a1.186,1.186,0,0,1,.369.037c-.059-.048-.209-.032-.064-.011.048.005.1.016.145.021.107.016.214.037.321.059.214.043.423.091.637.15.2.054.391.112.583.177.091.032.182.064.268.1a1.128,1.128,0,0,1,.332.128c-.011-.011-.236-.107-.059-.021.043.021.086.037.128.059.086.037.171.08.257.123.193.1.38.193.562.3a11.055,11.055,0,0,1,1.028.685c.123.091-.2-.166-.021-.016.038.032.075.059.107.091.075.059.145.118.214.182.161.139.311.284.46.428.134.134.262.268.385.407l.209.241.091.107c.021.027.187.209.07.086s.08.112.107.145c.064.086.123.171.182.257.118.177.23.353.337.535q.145.241.273.5c.043.086.086.171.123.257s.15.236.145.321c0-.112-.07-.177-.027-.059.016.043.037.086.054.134.037.1.075.2.112.3.07.2.134.407.193.616.112.412.177.824.257,1.247-.005-.027-.027-.257-.011-.064l.016.145c.011.1.016.2.027.294a5.555,5.555,0,0,1,.032.669,1.071,1.071,0,1,0,2.141,0,10.826,10.826,0,0,0-10.273-10.787c-.439-.021-.878-.016-1.317-.016H432.505c-1.387,0-2.779-.027-4.17,0h-.064a1.088,1.088,0,0,0-1.071,1.071v12.4a1.088,1.088,0,0,0,1.071,1.071h24.005c1,0,2.008.016,3.009,0,.064,0,.134.043.005-.005-.048-.016-.3-.145-.15-.038-.021-.016-.187-.171-.07-.043-.15-.161-.1-.129-.059-.054l-.064-.129c-.016-.171-.016-.2-.011-.075a1.071,1.071,0,1,0,2.141,0V321.9a1.068,1.068,0,0,0-2.136-.005Z" transform="translate(-427.2 -311.078)" fill="#585858"/>
        </g>
      </g>
    </g>
  </g>
</svg>
