<svg xmlns="http://www.w3.org/2000/svg" width="75" height="75" viewBox="0 0 75 75">
  <g id="그룹_14" data-name="그룹 14" transform="translate(775 1708)">
    <circle id="타원_21" data-name="타원 21" cx="37.5" cy="37.5" r="37.5" transform="translate(-775 -1708)" fill="#e04141"/>
    <g id="noun-path-3551334" transform="translate(-783.173 -1715.499)">
      <path id="패스_3" data-name="패스 3" d="M34.97,30.836H51.058a8.336,8.336,0,1,0,0-5H34.97a8.469,8.469,0,0,0-3.143,16.322L57.669,52.493a3.468,3.468,0,0,1-1.284,6.669h-16.1a8.336,8.336,0,1,0,0,5H56.377a8.469,8.469,0,0,0,3.143-16.322L33.678,37.505a3.468,3.468,0,0,1,1.284-6.669ZM59.011,25a3.334,3.334,0,1,1-3.334,3.334A3.334,3.334,0,0,1,59.011,25ZM32.336,65.014a3.334,3.334,0,1,1,3.334-3.334A3.334,3.334,0,0,1,32.336,65.014Z" fill="#fff"/>
    </g>
  </g>
</svg>
