<svg xmlns="http://www.w3.org/2000/svg" width="94.825" height="95.022" viewBox="0 0 94.825 95.022">
  <g id="noun-booking-2548879" transform="translate(-2.477 -2.5)">
    <g id="그룹_24" data-name="그룹 24">
      <path id="패스_35" data-name="패스 35" d="M54.2,2.5A43.033,43.033,0,0,0,16.9,24a12.453,12.453,0,0,1,8.6,3.8A33.764,33.764,0,1,1,71.9,74.4a12.454,12.454,0,0,1,3.5,5.8,26.956,26.956,0,0,1,.4,2.8A43.166,43.166,0,0,0,54.2,2.5Z" fill="#585858"/>
      <path id="패스_36" data-name="패스 36" d="M71.8,33a4.831,4.831,0,0,0-6.7,0L51.5,46.6l-6.3-6.3A4.738,4.738,0,0,0,38.5,47l9.7,9.7a4.589,4.589,0,0,0,6.6,0l17-17A4.831,4.831,0,0,0,71.8,33Z" fill="#585858"/>
      <path id="패스_37" data-name="패스 37" d="M65.5,79.5,52.1,72.6a4.338,4.338,0,0,0-5.5,1.2l-4.9,6.3a49.576,49.576,0,0,1-12.6-9.2,47.663,47.663,0,0,1-9.3-12.8L26,53.2a4.338,4.338,0,0,0,1.2-5.5L20.3,34.4a4.429,4.429,0,0,0-6.4-1.6L5.4,38.5a6.48,6.48,0,0,0-2.9,6,58.22,58.22,0,0,0,1,7.6C6,61.5,12,71.4,20.3,79.7,28.7,88,38.5,94,48,96.5a36.7,36.7,0,0,0,7.6,1,6.56,6.56,0,0,0,6-3l5.5-8.6A4.429,4.429,0,0,0,65.5,79.5Z" fill="#585858"/>
    </g>
  </g>
</svg>
