<svg xmlns="http://www.w3.org/2000/svg" width="104.478" height="104.421" viewBox="0 0 104.478 104.421">
  <g id="noun-stroller-5818320" transform="translate(-6.481 -6.497)">
    <path id="패스_27" data-name="패스 27" d="M87.455,65.424h-45.6a17.138,17.138,0,0,1-16.3-11.735L17.994,31a14.221,14.221,0,0,0-7.2-8.3,3.248,3.248,0,1,1,2.9-5.814,20.812,20.812,0,0,1,10.439,12.06l2.918,8.8h78.127a3.307,3.307,0,0,1,2.68,1.4,3.242,3.242,0,0,1,.346,3l-4.711,12.276A17.29,17.29,0,0,1,87.455,65.424Zm-58.223-21.2,2.485,7.413a10.676,10.676,0,0,0,10.136,7.3h45.6a10.806,10.806,0,0,0,9.985-6.829l3.026-7.867Z" transform="translate(0 8.761)" fill="#585858" stroke="#585858" stroke-width="5"/>
    <path id="패스_28" data-name="패스 28" d="M34.078,50.822,27.94,48.661,41.707,9.111,43.868,9c.778,0,18.932-.627,31.381,11.3,7.435,7.089,11.173,16.987,11.173,29.436H79.939c0-10.59-3.069-18.911-9.1-24.724-8.191-7.824-19.732-9.25-24.486-9.531Z" transform="translate(21.997 0)" fill="#585858" stroke="#585858" stroke-width="5"/>
    <path id="패스_29" data-name="패스 29" d="M33.42,69.863A13.832,13.832,0,1,1,47.273,56.032,13.832,13.832,0,0,1,33.42,69.863Zm0-21.18a7.348,7.348,0,1,0,5.21,2.145,7.348,7.348,0,0,0-5.21-2.145Z" transform="translate(12.324 38.555)" fill="#585858" stroke="#585858" stroke-width="5"/>
    <path id="패스_30" data-name="패스 30" d="M52.988,69.863A13.832,13.832,0,1,1,66.863,56.032,13.832,13.832,0,0,1,52.988,69.863Zm0-21.18a7.348,7.348,0,1,0,5.224,2.137,7.348,7.348,0,0,0-5.224-2.137Z" transform="translate(35.072 38.555)" fill="#585858" stroke="#585858" stroke-width="5"/>
    <rect id="사각형_24" data-name="사각형 24" width="13.94" height="6.484" transform="translate(41.823 82.848) rotate(-69.45)" fill="#585858" stroke="#585858" stroke-width="5"/>
    <rect id="사각형_25" data-name="사각형 25" width="21.201" height="6.484" transform="translate(56.269 90.524)" fill="#585858" stroke="#585858" stroke-width="5"/>
  </g>
</svg>
