<svg xmlns="http://www.w3.org/2000/svg" width="42.007" height="50" viewBox="0 0 42.007 50">
  <g id="noun-food-6070172" transform="translate(-77.152 -200.631)">
    <g id="그룹_11" data-name="그룹 11" transform="translate(77.152 200.631)">
      <path id="패스_13" data-name="패스 13" d="M130.078,200.631a9.33,9.33,0,0,1,7.5,4.164,16.309,16.309,0,0,1,0,18.279,9.943,9.943,0,0,1-5.294,3.863v21.491a2.2,2.2,0,0,1-4.406,0V226.937a9.929,9.929,0,0,1-5.293-3.865,16.305,16.305,0,0,1,0-18.276,9.321,9.321,0,0,1,7.5-4.165Zm-24.038,3.111a2.212,2.212,0,0,1,4.424,0v19.5a5.489,5.489,0,0,0,3.245-4.984V203.742a2.212,2.212,0,1,1,4.424,0v14.513a9.914,9.914,0,0,1-7.669,9.631v19.644a2.212,2.212,0,1,1-4.424,0V227.886a9.914,9.914,0,0,1-7.671-9.631V203.742a2.212,2.212,0,1,1,4.424,0v14.513a5.492,5.492,0,0,0,3.247,4.986Zm27.976,3.645a4.489,4.489,0,0,0-7.875,0,12.032,12.032,0,0,0,0,13.092,4.489,4.489,0,0,0,7.875,0,12.037,12.037,0,0,0,0-13.094Z" transform="translate(-98.37 -200.631)" fill="#585858"/>
    </g>
  </g>
</svg>
