<svg xmlns="http://www.w3.org/2000/svg" width="23.993" height="24.006" viewBox="0 0 23.993 24.006">
  <path id="iconmonstr-eat-1" d="M11.415,12.393,13.283,10.1c.425-.544.224-.988-.055-2.165a2.737,2.737,0,0,1,.572-2.5C15.561,3.6,19.143,0,19.143,0l.472.37L15.922,5.1l.79.617,3.87-4.59.479.373L17.5,6.333l.79.618,3.885-4.58.443.347-3.538,4.85.791.617,3.693-4.728L24,3.8s-2.55,4.36-3.9,6.535A2.754,2.754,0,0,1,17.768,11.5c-1.211.007-1.685-.089-2.117.464l-2.281,2.8c2.445,2.962,4.559,5.531,5.573,6.829a1.5,1.5,0,0,1-1.2,2.421,1.456,1.456,0,0,1-1.167-.573L8.218,13.361s-.926.719-1.944,1.518C3.1,9.695.007,3.218.007.924.007.8-.027,0,.739,0a.864.864,0,0,1,.674.344c.509.642,5.415,6.513,10,12.049M8.463,16.01l1.953,2.365L6.3,23.43A1.5,1.5,0,0,1,3.93,21.578Z" transform="translate(-0.007)" fill="#585858" fill-rule="evenodd"/>
</svg>
