<svg xmlns="http://www.w3.org/2000/svg" width="24" height="24" viewBox="0 0 24 24">
  <path id="iconmonstr-tree-20" d="M24,24.015H0s.835-.809,4-1.4V20.581a5,5,0,0,1-4-4.9c0-1.3.018-1.022,4.23-11.154a.836.836,0,0,1,1.541,0c.734,1.761,1.342,3.2,1.844,4.387C8.366,7.11,9.466,4.5,11.076.63a1,1,0,0,1,1.849,0c1.621,3.89,2.729,6.472,3.484,8.261.5-1.187,1.1-2.62,1.821-4.361a.836.836,0,0,1,1.541,0C23.65,13.835,24,14.148,24,15.682a5,5,0,0,1-4,4.9v2.036C23.161,23.2,24,24.013,24,24.015Zm-8.71-4.983a5.979,5.979,0,0,1-2.29.9v2.09a49.858,49.858,0,0,1,5,.3V20.581A5,5,0,0,1,15.29,19.032Zm-6.58,0A5,5,0,0,1,6,20.581v1.738a49.859,49.859,0,0,1,5-.3v-2.09A5.979,5.979,0,0,1,8.71,19.032Zm-2.157-7.5c-.1-.239-1.1-2.6-1.55-3.659L4.029,10.2C2,15.041,2,15.065,2,15.682a3.009,3.009,0,0,0,3,3.062,3.4,3.4,0,0,0,2.282-1.023A5.975,5.975,0,0,1,6,14.015a5.382,5.382,0,0,1,.553-2.486Zm10.163,6.194A3.4,3.4,0,0,0,19,18.744a3.015,3.015,0,0,0,3-3.062c0-.7-.1-.978-1.773-4.921L19,7.87l-1.525,3.645a6.115,6.115,0,0,1,.522,2.5,5.974,5.974,0,0,1-1.284,3.708ZM12,3.607c.732,1.744,1.337,3.169,1.836,4.344C15.9,12.8,16,13.086,16,14.015a3.986,3.986,0,0,1-3.332,3.944,3.188,3.188,0,0,1-1.336,0A3.985,3.985,0,0,1,8,14.015c0-.833,0-.849,2.46-6.72C10.9,6.252,11.408,5.034,12,3.607Z" transform="translate(0 -0.015)" fill="#585858" fill-rule="evenodd"/>
</svg>
