<svg xmlns="http://www.w3.org/2000/svg" width="51" height="51" viewBox="0 0 51 51">
  <g id="noun-circus-4880082" transform="translate(0.5 0.5)">
    <path id="패스_18" data-name="패스 18" d="M50,25.781V23.438a1.562,1.562,0,0,0-.828-1.375L26.563,10V9.375h7.813A1.563,1.563,0,0,0,35.484,6.7L33.453,4.688l2.031-2.016A1.563,1.563,0,0,0,34.375,0H25a1.562,1.562,0,0,0-1.562,1.563V10L.828,22.063A1.562,1.562,0,0,0,0,23.438v2.344A5.469,5.469,0,0,0,3.125,30.7V46.875H1.563a1.563,1.563,0,0,0,0,3.125H48.438a1.563,1.563,0,0,0,0-3.125H46.875V30.7A5.469,5.469,0,0,0,50,25.781ZM26.563,33.875a1.563,1.563,0,0,0-2.969,0c-2.109,6.344-11.8,7.813-17.187,10.609V31.25a5.438,5.438,0,0,0,3.125-1.562,5.469,5.469,0,0,0,7.812,0,5.469,5.469,0,0,0,7.813,0,5.469,5.469,0,0,0,7.813,0,5.469,5.469,0,0,0,7.813,0,5.437,5.437,0,0,0,3.125,1.562V44.531C38.281,41.547,28.609,40.266,26.563,33.875Zm15.094,13H8.453c5.8-2.562,12.641-3.719,16.547-9.109C28.844,43.078,36.016,44.328,41.656,46.875ZM30.609,6.25H26.563V3.125h4.047a1.828,1.828,0,0,0,0,3.125ZM3.125,24.375,25,12.7,46.875,24.375v1.406a2.344,2.344,0,1,1-4.687,0,1.563,1.563,0,0,0-3.125,0,2.344,2.344,0,1,1-4.687,0,1.562,1.562,0,1,0-3.125,0,2.344,2.344,0,0,1-4.688,0,1.563,1.563,0,0,0-3.125,0,2.344,2.344,0,1,1-4.687,0,1.562,1.562,0,1,0-3.125,0,2.344,2.344,0,0,1-4.688,0,1.562,1.562,0,1,0-3.125,0,2.344,2.344,0,0,1-4.687,0Z" fill="#e04141" stroke="#e04141" stroke-width="1"/>
  </g>
</svg>
