<svg xmlns="http://www.w3.org/2000/svg" width="24" height="24" viewBox="0 0 24 24">
  <path id="iconmonstr-party-2" d="M13.5,20a2,2,0,1,0,2,2A2,2,0,0,0,13.5,20ZM2.949,24C2.351,24,.52,22.246.2,19.7a5.17,5.17,0,0,1,4.413-5.87,6.71,6.71,0,0,1,6.434-4.77,5.342,5.342,0,0,1,6.84-3.186,6.654,6.654,0,0,1,3.7,3.737.5.5,0,0,1-.937.347A5.623,5.623,0,0,0,17.53,6.8a4.312,4.312,0,0,0-5.422,2.3,6.456,6.456,0,0,1,2.755.889,3.248,3.248,0,0,1,1.508,2.577,2.536,2.536,0,0,1-3.289,2.591,3.361,3.361,0,0,1-2.143-2.169,5.68,5.68,0,0,1-.178-2.921A5.654,5.654,0,0,0,5.686,13.81a6,6,0,0,1,2.831,1.012,3.261,3.261,0,0,1,1.513,2.6,2.638,2.638,0,0,1-1.011,2.155,2.721,2.721,0,0,1-2.363.348,3.212,3.212,0,0,1-2.079-2.118,6.307,6.307,0,0,1-.2-2.919,4.16,4.16,0,0,0-3.178,4.685,5,5,0,0,0,2.015,3.5A.5.5,0,0,1,2.949,24ZM13.5,23a1,1,0,1,1,1-1A1,1,0,0,1,13.5,23Zm8.011-6.8L24,16.658l-1.744,1.833L22.589,21l-2.283-1.092L18.023,21l.333-2.509-1.744-1.833L19.1,16.2l1.2-2.225Zm-1.759.9-1.143.21.8.843L19.257,19.3l1.049-.5,1.049.5L21.2,18.149l.8-.843L20.86,17.1l-.554-1.022ZM5.407,14.8a5.286,5.286,0,0,0,.113,2.678,2.185,2.185,0,0,0,1.424,1.492,1.721,1.721,0,0,0,1.472-.187,1.657,1.657,0,0,0,.614-1.34,2.3,2.3,0,0,0-1.09-1.8A4.9,4.9,0,0,0,5.407,14.8ZM11.78,10.08a4.892,4.892,0,0,0,.1,2.569,2.379,2.379,0,0,0,1.486,1.55,1.568,1.568,0,0,0,1.411-.242,1.592,1.592,0,0,0,.6-1.355,2.219,2.219,0,0,0-1.056-1.775,5.834,5.834,0,0,0-2.536-.747ZM5.968,2.711,9,3.269,6.876,5.5,7.281,8.56,4.5,7.229,1.719,8.56l.4-3.057L0,3.269l3.032-.558L4.5,0,5.968,2.711Zm-2.285.9L2,3.918,3.179,5.161l-.226,1.7L4.5,6.121l1.547.74-.226-1.7L7,3.918l-1.686-.31L4.5,2.1,3.683,3.608ZM21.5,0A2.5,2.5,0,1,0,24,2.5,2.5,2.5,0,0,0,21.5,0Zm0,4A1.5,1.5,0,1,1,23,2.5,1.5,1.5,0,0,1,21.5,4Z" fill="#585858" fill-rule="evenodd"/>
</svg>
